HIERARCHY
ROOT RootJoint
{
    OFFSET   0.000000   0.000000   0.000000
    CHANNELS 6 Xposition Yposition Zposition Xrotation Yrotation Zrotation
    JOINT pelvis_lowerback
    {
        OFFSET   0.000000   0.093605   0.000000
        CHANNELS 3 Xrotation Yrotation Zrotation
        JOINT lowerback_torso
        {
            OFFSET   0.000000   0.100000   0.000000
            CHANNELS 3 Xrotation Yrotation Zrotation
            JOINT torso_head
            {
                OFFSET   0.000000   0.282350   0.000000
                CHANNELS 3 Xrotation Yrotation Zrotation
                End Site
                {
                    OFFSET   0.000000   0.192650   0.000000
                }
            }
            JOINT rTorso_Clavicle
            {
                OFFSET  -0.001000   0.157500   0.000000
                CHANNELS 3 Xrotation Yrotation Zrotation
                JOINT rShoulder
                {
                    OFFSET  -0.117647   0.000000   0.000000
                    CHANNELS 3 Xrotation Yrotation Zrotation
                    JOINT rElbow
                    {
                        OFFSET  -0.245000   0.000000   0.000000
                        CHANNELS 3 Xrotation Yrotation Zrotation
                        JOINT rWrist
                        {
                            OFFSET  -0.240000   0.000000   0.000000
                            CHANNELS 3 Xrotation Yrotation Zrotation
                            End Site
                            {
                                OFFSET  -0.116353  -0.002500   0.000000
                            }
                        }
                    }
                }
            }
            JOINT lTorso_Clavicle
            {
                OFFSET   0.001000   0.157500   0.000000
                CHANNELS 3 Xrotation Yrotation Zrotation
                JOINT lShoulder
                {
                    OFFSET   0.117647   0.000000   0.000000
                    CHANNELS 3 Xrotation Yrotation Zrotation
                    JOINT lElbow
                    {
                        OFFSET   0.245000   0.000000   0.000000
                        CHANNELS 3 Xrotation Yrotation Zrotation
                        JOINT lWrist
                        {
                            OFFSET   0.240000   0.000000   0.000000
                            CHANNELS 3 Xrotation Yrotation Zrotation
                            End Site
                            {
                                OFFSET   0.116353  -0.002500   0.000000
                            }
                        }
                    }
                }
            }
        }
    }
    JOINT rHip
    {
        OFFSET  -0.100000  -0.051395   0.000000
        CHANNELS 3 Xrotation Yrotation Zrotation
        JOINT rKnee
        {
            OFFSET   0.000000  -0.410000   0.000000
            CHANNELS 3 Xrotation Yrotation Zrotation
            JOINT rAnkle
            {
                OFFSET   0.000000  -0.390000   0.000000
                CHANNELS 3 Xrotation Yrotation Zrotation
                JOINT rToeJoint
                {
                    OFFSET   0.000000  -0.050000   0.130000
                    CHANNELS 3 Xrotation Yrotation Zrotation
                    End Site
                    {
                        OFFSET  -0.010000   0.002000   0.060000
                    }
                }
            }
        }
    }
    JOINT lHip
    {
        OFFSET   0.100000  -0.051395   0.000000
        CHANNELS 3 Xrotation Yrotation Zrotation
        JOINT lKnee
        {
            OFFSET   0.000000  -0.410000   0.000000
            CHANNELS 3 Xrotation Yrotation Zrotation
            JOINT lAnkle
            {
                OFFSET   0.000000  -0.390000   0.000000
                CHANNELS 3 Xrotation Yrotation Zrotation
                JOINT lToeJoint
                {
                    OFFSET   0.000000  -0.050000   0.130000
                    CHANNELS 3 Xrotation Yrotation Zrotation
                    End Site
                    {
                        OFFSET   0.010000   0.002000   0.060000
                    }
                }
            }
        }
    }
}
MOTION
Frames: 11
Frame Time:   0.008333
 -2.376719   0.925631   3.975860   0.000000   0.000000   0.000000   0.000000   0.000000   0.000000   0.000000   0.000000   0.000000   0.000000   0.000000   0.000000   0.000000   0.000000   0.000000   0.000000   0.000000   0.000000   0.000000   0.000000   0.000000   0.000000   0.000000   0.000000   0.000000   0.000000   0.000000   0.000000   0.000000   0.000000   0.000000   0.000000   0.000000   0.000000   0.000000   0.000000   0.000000   0.000000   0.000000   0.000000   0.000000   0.000000   0.000000   0.000000   0.000000   0.000000   0.000000   0.000000   0.000000   0.000000   0.000000   0.000000   0.000000   0.000000   0.000000   0.000000   0.000000   0.000000   0.000000   0.000000
 -2.376005   0.923883   3.974963  -1.623287  -0.257012   0.243024   2.344377   0.543688  -0.015530  -0.402270  -0.306581  -0.279207   0.190229  -0.253198   0.173530  -0.666795   0.035419  -0.571500  -1.884300   0.157817  -0.300661  -0.026772   3.141077   0.061972   0.048569  -2.140748   0.902704  -0.879238   0.333422   0.752947  -1.344068  -0.068218   0.315075  -0.028916  -3.057437  -0.051544  -0.029376   1.362937  -0.900809   1.018361  -0.209699  -0.459048   2.928611   0.005038  -0.011976  -3.768295  -0.631134   0.291709   0.096634  -0.000064  -0.000914   0.387876   0.610050  -0.295869   3.551196   0.002042   0.010915  -0.373737  -0.189188  -0.158722  -0.252995  -0.000475  -0.000371
 -2.375270   0.924459   3.973500  -3.653074  -0.693437   0.267856   4.853440   1.205789   0.133893  -0.508293  -0.488499  -0.460782   0.442181  -0.502110   0.343256  -1.299360   0.436501  -1.247045  -3.649077   0.632680  -0.739463  -0.057878   6.255761   0.106173   0.029093  -3.186473   1.499334  -1.713974   0.407723   1.596527  -2.601564  -0.357875   0.762070  -0.064453  -6.063670  -0.087476  -0.125560   1.695287  -1.513402   1.855214  -0.502292  -0.666517   5.688174   0.005708  -0.027608  -7.411107  -1.346107   0.631321   0.252559  -0.000330  -0.002666   0.725540   1.207308  -0.358151   7.060822   0.004042   0.013379  -1.471647  -0.350540  -0.150172  -1.909955  -0.001060  -0.000309
 -2.374154   0.924533   3.972484  -5.787597  -1.088261   0.549328   7.185148   1.850777   0.060762  -0.514262  -0.614980  -0.685951   0.702198  -0.736213   0.500828  -1.868301   1.053703  -2.149603  -5.282330   1.278335  -1.290845  -0.094039   9.241138   0.140617   0.004138  -3.639115   1.942664  -2.479225   0.281589   2.711290  -3.763174  -0.784602   1.361196  -0.106299  -8.930838  -0.115402  -0.227918   1.549541  -1.928510   2.951686  -0.747295  -1.306596   8.972982   0.009272  -0.041329 -11.111515  -2.015319   0.822488   0.226331  -0.000291  -0.001843   0.973120   1.758881  -0.701208  10.945788   0.007338   0.015376  -2.195142  -0.511164  -0.206086  -4.303704  -0.004058  -0.000359
 -2.372938   0.924023   3.971979  -7.865930  -1.499422   0.810288   9.282365   2.519246   0.014091  -0.548131  -0.671392  -0.880400   0.933327  -0.953868   0.643486  -2.380182   1.807404  -3.187810  -6.796207   2.035146  -1.927354  -0.128616  12.079437   0.168352  -0.023943  -3.731748   2.129720  -3.181159   0.037582   3.950416  -4.839083  -1.287523   2.052653  -0.147514 -11.643426  -0.137435  -0.332034   1.155672  -2.077965   4.206102  -0.985782  -2.026746  12.391332   0.012683  -0.054027 -14.557679  -2.652375   0.959888   0.215175  -0.000258  -0.001354   1.142659   2.277966  -1.011858  15.006314   0.009949   0.015069  -2.721691  -0.666595  -0.297261  -7.142706  -0.008030   0.000287
 -2.371719   0.922910   3.971894  -9.844926  -1.910656   1.016395  11.171047   3.202765   0.000002  -0.631114  -0.666530  -1.020704   1.128102  -1.156384   0.780105  -2.838412   2.642632  -4.286654  -8.199706   2.859742  -2.594513  -0.158013  14.765175   0.189838  -0.055587  -3.590271   2.116748  -3.824593  -0.274787   5.252172  -5.836683  -1.829316   2.792676  -0.184099 -14.197328  -0.153504  -0.434775   0.630235  -2.010788   5.551508  -1.226720  -2.765641  15.878493   0.015184  -0.065421 -17.770174  -3.254936   1.052089   0.217944  -0.000199  -0.001112   1.206275   2.759079  -1.253038  19.072127   0.011477   0.013149  -3.136705  -0.817421  -0.401630  -9.527566  -0.010735   0.001073
 -2.370531   0.921226   3.972185 -11.705895  -2.311558   1.174306  12.869426   3.895824   0.006287  -0.758047  -0.609058  -1.110572   1.292005  -1.344891   0.911465  -3.245317   3.517225  -5.392997  -9.500253   3.718301  -3.254336  -0.180824  17.298163   0.205523  -0.089103  -3.294721   1.974524  -4.414412  -0.619433   6.575754  -6.762179  -2.384094   3.552936  -0.213989 -16.594084  -0.163848  -0.531885   0.040322  -1.778384   6.945997  -1.470543  -3.512698  19.412891   0.016618  -0.075331 -20.766676  -3.821999   1.106064   0.229026  -0.000117  -0.001001   1.201650   3.210888  -1.436813  23.001658   0.012123   0.010683  -3.469299  -0.955587  -0.508558 -11.201810  -0.011670   0.001378
 -2.369700   0.918965   3.971587 -12.373712  -2.422255   1.423782  13.431447   4.272019  -0.207773  -1.124201  -0.633459  -1.026566   1.388023  -1.605551   1.064708  -3.599831   4.288772  -6.421452 -10.499936   4.817259  -3.329769  -0.195121  20.189702   0.222282  -0.145340  -3.183707   1.242372  -4.674305  -0.811311   7.797226  -7.754243  -2.614024   4.017018  -0.241655 -19.441894  -0.177847  -0.634391  -0.468292  -0.813521   7.112994  -2.132236  -4.360445  22.999410   0.016337  -0.089289 -22.717935  -4.338646   1.042230   0.342925   0.000607  -0.002076  -0.208446   3.626522  -1.483462  25.968282   0.010603   0.015417  -4.472952  -0.792149  -0.913660 -10.355425  -0.007088   0.005061
 -2.369114   0.916116   3.970707 -12.935366  -2.414396   1.673287  13.989992   4.611228  -0.437731  -1.519523  -0.651235  -0.942068   1.436144  -1.860282   1.206437  -3.901412   5.075107  -7.271844 -11.424570   5.890837  -3.285199  -0.198916  22.921398   0.229681  -0.212886  -2.875708   0.663478  -4.905285  -1.009624   8.865166  -8.676600  -2.843152   4.386591  -0.254441 -22.114775  -0.182337  -0.732793  -1.087177   0.112299   7.342232  -2.771353  -5.234445  26.470604   0.016732  -0.096381 -24.529151  -4.821463   0.962880   0.520947   0.001671  -0.003405  -1.851828   4.017909  -1.386718  28.467746   0.008355   0.020959  -5.428759  -0.625325  -1.288084  -9.611168  -0.004393   0.008064
 -2.368732   0.912619   3.969691 -13.469294  -2.353820   1.913219  14.560903   4.960365  -0.665135  -1.860167  -0.635537  -0.865714   1.474138  -2.098665   1.335785  -4.160085   5.853895  -8.001295 -12.284721   6.916411  -3.176563  -0.195845  25.481324   0.229551  -0.282474  -2.508803   0.215502  -5.111623  -1.204788   9.810394  -9.534116  -3.065177   4.688661  -0.256502 -24.612220  -0.179137  -0.820679  -1.707010   0.940997   7.711905  -3.375663  -6.121133  29.769845   0.017452  -0.099201 -26.219909  -5.269366   0.872000   0.685451   0.002504  -0.004172  -3.629825   4.374915  -1.177430  30.677600   0.005896   0.025547  -6.325639  -0.460641  -1.633739  -8.937008  -0.002815   0.010160
 -2.368533   0.908435   3.968613 -13.983787  -2.278117   2.142114  15.138060   5.330710  -0.889969  -2.142634  -0.577217  -0.798734   1.511514  -2.320291   1.455551  -4.382265   6.614795  -8.644033 -13.086721   7.890968  -3.029590  -0.188485  27.877478   0.224174  -0.350168  -2.122540  -0.144669  -5.299225  -1.380018  10.656506 -10.332184  -3.268412   4.941265  -0.251058 -26.941490  -0.170676  -0.897295  -2.293475   1.685880   8.202341  -3.949639  -7.011674  32.898602   0.018050  -0.099745 -27.799024  -5.684608   0.772793   0.834457   0.003115  -0.004553  -5.498934   4.694799  -0.882085  32.655922   0.003465   0.028670  -7.165096  -0.299853  -1.952792  -8.321750  -0.001933   0.011392
